<?xml version="1.0" encoding="UTF-8"?>
<svg id="Layer_1" data-name="Layer 1" xmlns="http://www.w3.org/2000/svg" viewBox="0 0 1300 850">
  <defs>
    <style>
      .cls-1 {
        fill: #fff;
        stroke-width: 0px;
      }
    </style>
  </defs>
  <path class="cls-1" d="m902.38,794.02c-78.05-27-31.54-248.37,4.62-328.52,54.5,51,152,29,159.5,8.5,2.25,12.09,9.47,66.26,41.1,114.17,31.62,47.92,72.65,72.84,79.9,93.64,17.66,50.62-21.03,76.77-40.37,82.67-67.96,15.52-125.32-61.02-145.51-101.23-28.93,118.78-78.21,136.67-99.24,130.76Z"/>
  <path class="cls-1" d="m887.35,843.47c-14.72,0-30.02-8.56-37.63-14.53-2.18-1.57-19.27-14.22-20.18-25.4-.25-3.09.76-5.88,2.93-8.04,9.39-9.38,23.98.15,30.54,6.63,5.9,4.1,10.68,5.18,14.2,3.2,6.51-3.66,8.43-16.89,8.02-23.16l4.99-.33c.46,6.89-1.53,22.77-10.56,27.85-5.37,3.02-12,1.82-19.69-3.59l-.33-.28c-4.23-4.23-16.72-13.69-23.63-6.78-1.14,1.14-1.62,2.45-1.48,4.1.52,6.38,9.77,15.76,18.15,21.78l.09.07c9.25,7.28,30.89,18.9,46.55,10.77,15.47-8.04,15.36-29.45,13.14-39.65l4.88-1.06c2.5,11.49,2.43,35.72-15.72,45.15-4.48,2.33-9.35,3.29-14.27,3.29Z"/>
  <path class="cls-1" d="m1183.27,828.5c-2.44,0-5.65-1.07-8.39-5.54-11.14-18.13-.97-42.1,6.37-52.91-.65-6.7-9.98-13.49-16.32-16.51l2.15-4.51c7.13,3.4,19.21,11.81,19.21,21.76v.79l-.46.65c-6.7,9.51-16.72,31.8-6.68,48.12,2.07,3.37,3.87,3.2,4.46,3.14,8.12-.77,21.23-24.52,29.99-47.6,4.1-12.4,4.03-38.43-25.54-48.51l1.61-4.73c33.32,11.36,33.32,40.86,28.66,54.87l-.03.1c-3.13,8.25-19.49,49.47-34.22,50.86-.25.02-.52.04-.8.04Z"/>
  <path class="cls-1" d="m933.2,844.51c-2.39,0-4.69-.23-6.89-.7-10.39-2.2-14.51-8.71-15.52-10.66l4.43-2.31c1.56,3,5.57,6.69,12.12,8.08,8.3,1.75,18.84-.54,30.5-6.63l2.32,4.43c-9.92,5.18-18.96,7.79-26.96,7.79Z"/>
  <path class="cls-1" d="m967.72,835.54c-21.45,0-35.46-11.93-37.4-13.68l3.35-3.71c2.32,2.1,23.54,20.13,54.45,8.54l1.76,4.68c-8.02,3.01-15.45,4.17-22.16,4.17Z"/>
  <path class="cls-1" d="m1014.07,837.51c-20.58,0-37.28-12-44.96-20.87l3.78-3.27c10.04,11.6,36.93,29.04,66.87,12l2.47,4.35c-9.83,5.59-19.36,7.8-28.17,7.8Z"/>
  <path class="cls-1" d="m1167.88,849.5c-116.29-5.52-152.34-27.68-155.31-39.91l4.86-1.18c1.98,8.14,32.91,30.5,150.69,36.09l-.24,4.99Z"/>
  <path class="cls-1" d="m1007.39,387.4l-1.38-4.81c45.06-12.95,81.02-53.8,93.75-73.59,2.76-4.14,6.6-12.69,1.49-23.88-7.23-15.82-36.66-44.55-152.56-59.15l.62-4.96c112.38,14.16,147.12,41.55,156.48,62.04,4.47,9.78,3.79,20.24-1.85,28.7-13.05,20.3-50.06,62.29-96.55,75.65Z"/>
  <path class="cls-1" d="m1004.99,386.49c-2.48-3.33-9.24-9.7-17.09-9.99l.19-5c9.72.36,17.72,7.72,20.91,12.01l-4.01,2.99Z"/>
  <path class="cls-1" d="m990.5,374.06l-5-.12c.28-11.69,10.05-40.53,45.03-65.96l2.94,4.04c-33.4,24.28-42.71,51.2-42.97,62.04Z"/>
  <path class="cls-1" d="m987.87,305.67c-3.52-5.7-13.98-17.19-28.33-19.86l.91-4.92c16.08,2.98,27.75,15.79,31.67,22.14l-4.25,2.63Z"/>
  <path class="cls-1" d="m956.27,393.51c-5.68-.28-24.51-1.34-28.22-3.39-.33-.18-.64-.35-.93-.5-3.36-1.81-4.63-2.92-4.63-7.46,0-3.85,4.65-3.91,11.69-3.98,7.4-.08,18.37-.2,19.59-4.77-1.77-1.96-5.17-6.3-4.73-10.36.2-1.91,1.21-3.49,2.9-4.57,6.85-4.38,18.39,7.6,20.63,10.05,3.21,3.39,8.04,6.65,10.96,6.28.64-.08,1.59-.38,2.44-1.93l4.39,2.39c-1.79,3.28-4.35,4.26-6.19,4.5-6.67.87-13.88-6.37-15.27-7.83-5.57-6.08-12.36-10.46-14.28-9.25-.47.3-.58.56-.62.89-.17,1.55,1.65,4.7,4.14,7.17l.74.73v1.04c0,10.38-14.83,10.54-24.65,10.65-2.25.02-5.17.06-6.69.27.12.78.53,1,1.95,1.77.3.16.62.33.97.53,1.75.91,13.43,2.16,26.04,2.77l-.24,4.99Z"/>
  <path class="cls-1" d="m978.6,409.51c-3.8,0-7.76-.76-11.84-2.28-20.47-7.63-23.27-11.9-23.42-14.76-.08-1.57.76-2.95,2.25-3.69l2.22,4.48c.39-.19.62-.89.49-1.23.05.14,1.57,3.57,20.2,10.52,7.14,2.66,13.74,2.61,19.62-.17,8.11-3.83,13.43-12.28,15.52-18.34l4.73,1.63c-2.52,7.32-8.6,16.74-18.11,21.24-3.69,1.74-7.58,2.61-11.65,2.61Z"/>
  <path class="cls-1" d="m850.08,377.57c-6.11-1.67-18.8-9.24-23.08-25.9-2.34-9.14-1.98-14.49,1.15-16.82,1.92-1.43,4.61-1.37,7.2.18l-2.56,4.29c-.9-.54-1.53-.55-1.65-.47-.02.01-1.83,1.7.7,11.58,3.7,14.44,14.41,20.91,19.55,22.32l-1.32,4.82Z"/>
  <path class="cls-1" d="m868.43,364.25c-1.46-7.59-5.23-17.18-10.08-20.3-1.52-.98-3.06-1.27-4.7-.87l-1.17-4.86c3-.72,5.89-.21,8.58,1.53,8.6,5.54,11.93,21.74,12.28,23.56l-4.91.94Z"/>
  <path class="cls-1" d="m883.08,387.13c-16.11,0-27.11-5.19-33.79-9.92-4.75-3.37-8.69-7.54-10.83-11.46l-.14-.32c-1.32-3.5-12.49-34.4.2-39.8,4.58-1.96,7.71-.98,9.52.18,3.66,2.35,5.09,7.38,5.2,11.3v.15s0,.15,0,.15c-.86,9.7,4.19,20.62,6.98,25.05l-4.23,2.67c-3.09-4.89-8.67-17.01-7.75-28-.1-2.62-1.04-5.91-2.89-7.1-1.16-.74-2.79-.67-4.86.21-5.32,2.27-2.87,19,2.46,33.28.92,1.64,3.53,5.57,9.24,9.62,6.74,4.78,18.37,10.04,36.02,8.82-1.07-5.87-4.11-13.35-9.52-15.01l-1.47-.45-.26-1.51c-1.24-7.15-4.06-13.43-6.42-14.31-.26-.1-.95-.35-2.32.78l-3.17-3.86c2.97-2.44,5.57-2.22,7.23-1.6,5.73,2.13,8.39,12.04,9.34,16.73,8.13,3.6,11.32,14.87,11.92,21.27l.23,2.47-2.46.25c-2.87.29-5.61.43-8.21.43Z"/>
  <path class="cls-1" d="m995.71,497.52c-25.72,0-52.63-5.23-74.4-19.46-26.29-17.19-42.04-44.91-46.8-82.4l4.96-.63c4.57,35.97,19.56,62.5,44.57,78.84,37.36,24.42,90.81,21.22,125.24,11.07,8.4-2.85,14.06-8.64,16.74-17.18,6.6-21.09-6.48-55.33-18.04-70.94l4.02-2.98c12.5,16.86,25.98,52.45,18.79,75.41-3.18,10.15-9.91,17.03-20,20.45-15.6,4.6-34.98,7.8-55.09,7.8Z"/>
  <path class="cls-1" d="m681.67,424.83c-.34,0-.69-.01-1.04-.04l-31.75-2.15c-8.17-.55-14.31-7.4-13.98-15.58l1.19-28.88c.11-2.73-2.01-5.06-4.74-5.2l-9.18-.48c-2.72-.13-5.09,1.97-5.25,4.71l-.88,15.35c-.47,8.17-7.25,14.39-15.43,14.14l-12.94-.39c-4.1-.12-7.87-1.86-10.63-4.89-2.76-3.03-4.14-6.95-3.88-11.05l2.21-35.09c.08-1.34-.36-2.64-1.26-3.64-.9-1-2.13-1.6-3.48-1.66l-18.86-.97c-4.02-.21-7.71-1.97-10.39-4.96-2.69-2.99-4.04-6.85-3.82-10.86l2.38-42.43c.23-4.02,2-7.7,5.01-10.37,3.01-2.67,6.88-4.01,10.89-3.76l135.68,8.38,333.81,22.5-.67,9.98-333.78-22.5-135.65-8.38c-1.34-.08-2.63.36-3.63,1.25-1,.89-1.6,2.12-1.67,3.46l-2.38,42.43c-.08,1.34.38,2.62,1.27,3.62.9,1,2.13,1.58,3.46,1.65l18.86.97c4.03.21,7.74,1.98,10.43,5,2.69,3.02,4.03,6.9,3.77,10.93l-2.21,35.09c-.09,1.36.37,2.67,1.29,3.68s2.18,1.59,3.55,1.63l12.94.39c2.74.07,4.99-1.99,5.14-4.71l.88-15.35c.47-8.21,7.52-14.55,15.75-14.12l9.18.48c8.17.42,14.55,7.42,14.21,15.6l-1.19,28.88c-.11,2.73,1.93,5.01,4.66,5.2l31.75,2.15c1.36.09,2.67-.36,3.68-1.27s1.6-2.16,1.66-3.52l1.95-48.54c.17-4.06,1.92-7.8,4.93-10.52,3.01-2.72,6.9-4.09,10.96-3.84l122.32,7.39-.6,9.98-122.32-7.39c-1.34-.07-2.65.37-3.65,1.28-1,.91-1.59,2.15-1.64,3.51l-1.95,48.54c-.16,4.08-1.93,7.83-4.97,10.56-2.78,2.5-6.3,3.84-9.99,3.84Z"/>
  <path class="cls-1" d="m881.87,235.7c-.78-.48-3.59-1-6.3-1.5-15.56-2.89-51.72-9.59-60.57-60.91-10.73-.59-17.74-6.51-19.01-12.16-1.07-4.78,1.59-9.16,7.12-11.72,12.32-6.38,10.8-17.82,8.76-24.13-3.81-9.72-4.48-20.94-3.25-24.11l4.66,1.8c-.46,1.33-.54,10.86,3.27,20.55l.05.14c1.59,4.9,5.49,21.58-11.25,30.21l-.1.05c-1.95.9-5.11,2.88-4.38,6.1.92,4.07,7.35,8.44,16.24,8.3l2.17-.03.33,2.14c7.68,49.71,40.91,55.87,56.88,58.83,3.88.72,6.44,1.19,8.01,2.16l-2.62,4.26Z"/>
  <path class="cls-1" d="m831.74,148.23c-1.88.02-3.43-2.24-3.46-5.06-.03-2.82,1.46-5.12,3.34-5.15,1.88-.02,3.43,2.25,3.46,5.07s-1.46,5.12-3.34,5.14Z"/>
  <path class="cls-1" d="m839.15,129.28c-1.43-1.53-4.14-3.35-7.04-3.41-2.06-.05-3.99.82-5.76,2.56l-3.5-3.57c2.74-2.68,6-4.05,9.37-3.99,4.45.1,8.39,2.64,10.59,4.99l-3.65,3.42Z"/>
  <path class="cls-1" d="m848.24,195.3c-3.21,0-6.83-1-11.04-2.95l2.11-4.53c10.18,4.74,14.16,2.34,18.33-4.09l4.19,2.72c-3.88,5.96-8.14,8.85-13.6,8.85Z"/>
  <path class="cls-1" d="m899.15,143.78l-2.27-4.45c4.66-2.38,2.27-7.75,2.17-7.98l4.55-2.07c1.82,3.99,2.13,11.15-4.45,14.5Z"/>
  <path class="cls-1" d="m959.62,103.78c6.44,35.26-13.72,61.79-28.34,82.2-15.61-8.43-41.2-28.49-31.38-30.65,10.31-2.27,21.19-30.41,11.18-39.01-11.75-10.1-22.34,5.18-24.36,16.76l-9.47-16.37c2.68-11.45,3.73-31.53-13.49-20.27-17.21,11.26-42.46,8.31-52.93,5.43-20.65-14.78-52.73-49.26-15.86-68.92,30.66-16.35,70.57,4.32,94.93,22.9,16.49-4.35,60.95-.13,69.73,47.94Z"/>
  <path class="cls-1" d="m916.94,215.55c-.48-16.2,3.59-24.28,11.27-33.53l3.85,3.19c-7.06,8.5-10.56,15.5-10.12,30.19l-5,.15Z"/>
  <path class="cls-1" d="m872.09,246.28c-.55-2.01-.13-4.19,1.24-6.48,6.69-11.15,37.32-25.4,53.92-29.19,6.32-1.45,9.89.61,11.77,2.6,6.27,6.62,2.61,20.84,1.81,23.62l-4.81-1.38c1.92-6.7,2.54-15.45-.64-18.8-1.45-1.53-3.75-1.91-7.02-1.16-15.48,3.54-44.98,17.28-50.74,26.89-.44.74-.92,1.79-.71,2.59l-4.82,1.31Z"/>
  <path class="cls-1" d="m858.48,295.69l-4.96-.66c2.05-15.41,5.19-23.96,19.28-37l3.4,3.67c-12.77,11.83-15.75,19.19-17.72,34Z"/>
  <path class="cls-1" d="m521.52,787.37c-14.34-23.74-17.76-54.67-9.64-87.11,3.52-14.07,9-27.59,15.82-39.52-33.99-12.68-56.99-32.52-68.51-59.14-9.3-21.48-11.1-46.64-5.5-76.89-79.19,40.5-123.71,10.64-136.2-10.88l4.32-2.51c11.71,20.17,54.02,47.92,130.36,8.55,1.57-.81,3.43-.65,4.85.41,1.4,1.05,2.07,2.75,1.75,4.46-12.38,65.43,11.67,109.63,71.53,131.63,6.37-10.26,13.75-19.17,21.73-25.98,17.69-15.11,35.64-17.19,49.23-5.73,15.42,13.02,13.22,23.62,10.54,28.78-7.7,14.81-36.54,20.88-64.29,13.55-5.17-1.37-10.15-2.87-14.92-4.5-19.92,34.4-29.64,84.49-6.8,122.29l-4.28,2.59Zm13.73-129.26c4.34,1.46,8.85,2.81,13.55,4.05,27.79,7.35,52.72.23,58.58-11.02,4.42-8.49-2.64-17-9.33-22.65-15.79-13.32-33.57-2.14-42.76,5.71-7.1,6.06-13.96,14.26-20.04,23.91Z"/>
  <path class="cls-1" d="m121.65,199.08c-1.56-47.05,8-108.47,39.52-139.73,15.52-15.4,35.19-22.72,58.47-21.77,15.01.91,30.95,11.14,42.68,27.38,14.88,20.59,23.24,50.33,24.18,85.99l-5,.13c-2.03-76.99-38.26-107.07-62.11-108.51-21.78-.9-40.2,5.94-54.69,20.32-30.38,30.14-39.57,90.02-38.04,136.02l-5,.17Z"/>
  <path class="cls-1" d="m80.61,209.07c-.93-31.76,3.61-80.66,19.14-122.62,8.83-23.86,20.31-43.1,34.12-57.19C150.14,12.65,169.71,3.17,192.02,1.09c30.16-2.82,55.63,4.62,75.68,22.12,40.66,35.5,47.68,101.83,48.8,128.71l-5,.21c-1.1-26.23-7.9-90.93-47.1-125.15-18.98-16.57-43.17-23.61-71.92-20.91-39.63,3.71-69.25,31.34-88.04,82.12-15.28,41.3-19.75,89.45-18.83,120.74l-5,.15Z"/>
  <rect class="cls-1" x="143" y="164.5" width="122" height="5" transform="translate(-35.74 57.32) rotate(-14.72)"/>
  <path class="cls-1" d="m14.84,241.23l-4.36-2.46c12.72-22.56,43.65-33.56,58.23-36.23l.9,4.92c-13.78,2.52-42.97,12.82-54.77,33.77Z"/>
  <path class="cls-1" d="m10.66,238.5c35.2-20.8,46.5,18.67,50.5,36v238c0,52,15,49.5,29.89,62.65-42-14.5-63.89-34.65-71.5-44.5C-1.12,503.9,1.05,307.65.05,286.15c-.8-17.2,7.94-41.82,10.61-47.65Z"/>
  <path class="cls-1" d="m112.98,581.98c-10.2,0-20.33-2.98-29.09-8.82-14.64-9.76-23.39-26.09-23.39-43.69v-241.96c0-23.19,15.54-43.91,37.8-50.4l218.66-63.76.7,2.4-.7-2.4c16.01-4.67,32.85-1.61,46.2,8.4,13.35,10.01,21,25.32,21,42v214.52c0,21.25-12.67,40.27-32.29,48.45l-218.66,91.21c-6.52,2.72-13.39,4.06-20.23,4.06Zm205.38-403.84l-218.66,63.76c-20.14,5.87-34.2,24.62-34.2,45.6v241.96c0,15.92,7.91,30.7,21.16,39.53,13.25,8.83,29.93,10.44,44.63,4.31l218.66-91.21c17.75-7.4,29.21-24.61,29.21-43.84v-214.52c0-15.09-6.92-28.94-19-38-12.07-9.06-27.31-11.83-41.8-7.6h0Z"/>
  <path class="cls-1" d="m233.53,329.63c23.74-38.79-1.13-57.92-16.53-62.63,51.88-8.49,42.81,39.57,31.79,64.65l32.21,84.35-25.75-12.1c-2.75-1.29-4.76-3.76-5.47-6.71l-16.25-67.56Z"/>
  <path class="cls-1" d="m192.64,443.59l23.16-103.73c-15.92-5.22-22.49-24.85-21.79-41.62.81-19.42,10.39-33.21,24.41-35.13,20.78-2.85,30.8,4.98,35.54,12.06,10.8,16.1,4.99,42.76-2.55,56.56l30.85,85.59-89.62,26.28Zm34.26-176.1c-2.45,0-5.05.19-7.81.57-13.97,1.92-19.55,17.57-20.09,30.39-.67,16.08,6.08,34.02,20.3,37.2l2.44.55-22.37,100.21,76.38-22.4-29.83-82.76.58-1.01c7.17-12.37,13.19-37.55,3.3-52.29-4.67-6.96-12.35-10.46-22.9-10.46Z"/>
  <path class="cls-1" d="m13.66,682.07c-25.6-10-6-22.5,7-27.5l223.5-69.5c17.67-5,59.5-11.4,85.5,3,32.5,18-3.5,27-10,32s-143.5,62-190.5,77.5c-47,15.5-83.5-3-115.5-15.5Z"/>
  <path class="cls-1" d="m1211.89,467.37c-.93,0-1.86-.02-2.79-.07-21.12-1.07-40.38-14.15-54.22-36.84-13.83-22.7-20.59-52.29-19.01-83.3,1.56-31.02,11.26-59.77,27.31-80.96,16.06-21.19,36.56-32.26,57.66-31.2,21.13,1.07,40.38,14.15,54.21,36.84,13.84,22.69,20.59,52.28,19.03,83.3h0c-1.56,31.02-11.26,59.77-27.31,80.96-15.35,20.25-34.74,31.27-54.87,31.27Zm6.19-222.45c-16.94,0-33.53,9.62-46.93,27.31-14.85,19.61-23.83,46.39-25.29,75.43-1.47,29.03,4.77,56.59,17.57,77.6,12.06,19.78,28.47,31.17,46.18,32.06,17.74.87,35.19-8.78,49.18-27.25,14.85-19.61,23.83-46.39,25.29-75.43h0c1.47-29.04-4.77-56.59-17.58-77.59-12.06-19.78-28.45-31.17-46.17-32.06-.75-.04-1.51-.06-2.26-.06Z"/>
  <path class="cls-1" d="m1213.33,419.51c-.55,0-1.1-.01-1.65-.04-12.47-.63-23.83-8.35-32-21.75-8.17-13.39-12.16-30.85-11.23-49.17.93-18.31,6.66-35.29,16.13-47.79,9.47-12.5,21.58-19.04,34.03-18.41,12.47.63,23.83,8.35,32,21.75,8.16,13.4,12.15,30.86,11.22,49.17h0c-.92,18.31-6.65,35.28-16.12,47.79-9.05,11.95-20.5,18.46-32.38,18.46Zm3.66-127.2c-8.69,0-17.33,5.11-24.44,14.49-8.27,10.92-13.28,25.93-14.11,42.26-.82,16.33,2.65,31.76,9.79,43.45,6.39,10.48,14.9,16.51,23.96,16.97,9.08.47,18.14-4.68,25.55-14.46,8.27-10.92,13.28-25.93,14.1-42.25l4.99.25-4.99-.25c.82-16.33-2.65-31.76-9.78-43.46-6.39-10.48-14.9-16.5-23.96-16.96-.37-.02-.75-.03-1.12-.03Z"/>
  <rect class="cls-1" x="1115" y="301.22" width="10" height="45.07" transform="translate(734.62 1424.07) rotate(-86.82)"/>
  <rect class="cls-1" x="916.75" y="340.42" width="10" height="62.66" transform="translate(484.76 1264.42) rotate(-85.88)"/>
  <rect class="cls-1" x="1080.5" y="324.71" width="10" height="113.09" transform="translate(661.36 1450.72) rotate(-87.72)"/>
</svg>